<?xml version="1.0" standalone="no"?>
<!DOCTYPE svg PUBLIC "-//W3C//DTD SVG 20010904//EN"
 "http://www.w3.org/TR/2001/REC-SVG-20010904/DTD/svg10.dtd">
<svg version="1.0" xmlns="http://www.w3.org/2000/svg"
 width="700.000000pt" height="700.000000pt" viewBox="0 0 700.000000 700.000000"
 preserveAspectRatio="xMidYMid meet">
<metadata>
Created by potrace 1.11, written by Peter Selinger 2001-2013
</metadata>
<g transform="translate(0.000000,700.000000) scale(0.100000,-0.100000)"
fill="#000000" stroke="none">
<path d="M4 6781 c-2 -2 -4 -1295 -4 -2873 0 -2724 1 -2868 18 -2869 9 0 515
-1 1123 -1 l1105 -1 0 -205 -1 -205 -205 -1 -204 -1 -1 -198 c0 -118 4 -201
10 -205 17 -11 3306 -8 3313 3 3 5 6 96 7 202 0 164 -2 194 -15 197 -8 2 -91
4 -185 4 -93 0 -179 1 -191 1 -21 1 -21 4 -21 204 l1 204 1123 -1 1123 -1 -2
2874 -3 2875 -3493 0 c-1922 1 -3496 -1 -3498 -3z m6584 -2254 l2 -1847 -3090
0 -3090 0 0 1844 c0 1719 1 1845 17 1848 9 2 1398 3 3087 2 l3071 -1 3 -1846z
m2 -2667 l0 -410 -77 0 c-147 0 -6008 0 -6055 0 l-48 0 0 410 0 410 3090 0
3090 0 0 -410z m-2249 -834 c6 -83 2 -396 -6 -397 -46 -4 -1675 -3 -1676 1 -1
7 -1 372 0 391 1 14 79 16 841 16 599 0 840 -3 841 -11z"/>
<path d="M3495 5558 c-21 -112 -40 -207 -41 -213 -1 -5 -27 -138 -59 -295 -31
-157 -58 -292 -60 -300 -4 -19 -96 -480 -100 -501 -2 -9 -6 -33 -9 -54 -4 -20
-13 -67 -21 -103 -14 -67 -23 -109 -29 -147 -2 -11 -13 -67 -26 -125 -12 -58
-24 -118 -27 -135 -3 -16 -18 -93 -33 -170 -19 -96 -25 -142 -17 -147 5 -3 30
-9 55 -13 24 -4 51 -8 60 -10 209 -43 268 -53 273 -47 5 5 184 890 205 1012 2
14 9 45 14 70 5 25 12 56 14 70 2 14 20 104 40 200 19 96 37 186 39 200 5 25
63 316 73 361 2 13 11 58 19 99 8 41 23 118 34 170 19 96 29 149 34 184 2 18
-15 23 -158 52 -88 18 -178 35 -200 38 l-40 7 -40 -203z"/>
<path d="M1981 5042 l-513 -515 516 -516 516 -516 140 140 c77 77 140 144 140
150 0 5 -165 175 -366 376 l-366 367 370 370 370 370 -147 144 -146 145 -514
-515z"/>
<path d="M4357 5412 l-145 -145 370 -369 371 -370 -367 -367 c-201 -201 -366
-371 -366 -376 0 -6 63 -73 141 -150 l140 -139 508 504 c279 278 510 511 514
518 4 8 -181 199 -507 526 l-513 514 -146 -146z"/>
</g>
</svg>
